<?xml version="1.0" standalone="no"?><!DOCTYPE svg PUBLIC "-//W3C//DTD SVG 1.1//EN"
        "http://www.w3.org/Graphics/SVG/1.1/DTD/svg11.dtd">
<svg class="icon" width="200px" height="138.85px" viewBox="0 0 1475 1024" version="1.1"
     xmlns="http://www.w3.org/2000/svg">
    <path d="M1438.175947 987.166567H36.67147l60.675821-758.677015h1279.541492l61.287164 758.677015z" fill="#B2EDA6"/>
    <path d="M1438.481619 1024H36.67147a36.833433 36.833433 0 0 1-26.899105-11.768358A36.22209 36.22209 0 0 1 0.143709 984.262687l61.134328-758.677015a36.374925 36.374925 0 0 1 36.374925-33.623881h1279.235821a36.680597 36.680597 0 0 1 36.527761 33.623881l61.134329 754.397612a36.986269 36.986269 0 0 1 0 7.183283A36.527761 36.527761 0 0 1 1438.481619 1024zM76.561619 950.638806h1322.029851l-55.326567-685.621493H131.124007z"
          fill="#3C663E"/>
    <path d="M280.138932 73.055522s172.093134-22.772537 263.183284-22.772537 187.98806 51.2 187.98806 108.207761v706.712836S749.039231 733.61194 520.549679 733.61194s-285.650149 56.243582-285.65015 56.243582z"
          fill="#FFFFFF"/>
    <path d="M731.15744 886.447761h-1.681194a24.453731 24.453731 0 0 1-22.772537-24.453731v-11.921194c-2.751045-28.274627-26.899104-91.701493-186.15403-91.701493-210.30209 0-268.532537 49.213134-268.991045 49.671642a25.065075 25.065075 0 0 1-27.05194 3.820896 24.453731 24.453731 0 0 1-13.90806-23.231045l45.850746-717.411343a24.453731 24.453731 0 0 1 20.48-22.31403c7.183284-0.917015 174.691343-23.078209 266.392836-23.078209 100.413134 0 212.136119 53.186866 212.136119 129.604776v692.65194a72.597015 72.597015 0 0 1 0 17.423284A24.300896 24.300896 0 0 1 731.15744 886.447761zM520.549679 709.922388c95.369552 0 152.835821 18.64597 186.459701 45.850746V158.490746c0-35.610746-76.41791-83.906866-163.687164-83.906865-70.457313 0-192.420299 14.213731-240.105075 20.174328l-41.112835 652.608955c42.641194-17.576119 121.198806-37.444776 258.445373-37.444776z"
          fill="#3C663E"/>
    <path d="M147.630276 886.600597l87.269253-107.596418 45.239403-705.948657-86.65791 113.862687-45.850746 699.682388z"
          fill="#FFFFFF"/>
    <path d="M147.630276 910.901493a22.31403 22.31403 0 0 1-8.864478-1.681194 24.14806 24.14806 0 0 1-15.283582-24.300896l45.850746-699.529552a24.300896 24.300896 0 0 1 4.890747-13.143881l86.65791-114.015522a24.606567 24.606567 0 0 1 27.968955-7.947463 23.995224 23.995224 0 0 1 15.283582 24.300896L259.964604 780.532537a25.829254 25.829254 0 0 1-5.502089 13.90806l-87.269254 106.985075a23.995224 23.995224 0 0 1-19.562985 9.475821z m69.693134-714.965971l-40.348657 615.928359 34.235224-42.182687L250.641619 152.835821z"
          fill="#3C663E"/>
    <path d="M146.407589 889.657313h584.902687C729.629082 914.416716 750.109082 733.61194 497.777141 733.61194 214.113858 733.61194 146.407589 889.657313 146.407589 889.657313z"
          fill="#FFFFFF"/>
    <path d="M731.310276 913.958209c-3.66806 0-7.336119 1.528358-10.392836 0H146.407589a27.968955 27.968955 0 0 1-20.48-14.060896 24.300896 24.300896 0 0 1-1.83403-23.078209c3.056716-7.030448 78.099104-169.953433 373.683582-169.953432 232.004776 0 255.235821 146.111045 257.528359 175.302686a26.899104 26.899104 0 0 1 0 6.113433v1.528358a25.065075 25.065075 0 0 1-23.995224 24.14806z m-536.14806-48.754627h511.847164c-11.768358-39.890149-58.536119-109.583284-209.232239-109.583283-181.263284 0-265.475821 67.859104-302.614925 109.583283z"
          fill="#3C663E"/>
    <path d="M1189.664903 73.055522s-168.119403-22.772537-258.903881-22.772537-199.756418 48.143284-199.756418 105.151045v718.328358S725.808186 733.61194 953.533559 733.61194s285.650149 56.243582 285.65015 56.243582z"
          fill="#FFFFFF"/>
    <path d="M707.00938 158.490746c0-80.238806 130.216119-132.661493 223.751642-132.661492A2599.890149 2599.890149 0 0 1 1192.263112 48.907463a24.606567 24.606567 0 0 1 21.091343 22.466865l49.518806 717.411344A24.300896 24.300896 0 0 1 1222.830276 807.890149s-58.383284-49.213134-268.685373-49.213134c-189.210746 0-197.769552 101.482985-198.686568 114.168358v1.528358a24.606567 24.606567 0 0 1-23.995223 24.453732 22.31403 22.31403 0 0 1-23.995224-21.397015v-718.328358m223.293134-84.518209c-88.644776 0-175.302687 45.850746-175.302687 80.850149v614.552836c34.999403-32.55403 95.063881-60.064478 198.686568-60.064478 137.552239 0 215.651343 19.868657 258.292537 37.444776l-45.850746-652.761791c-46.614925-5.807761-165.521194-20.021493-235.825672-20.021492z"
          fill="#3C663E"/>
    <path d="M1326.758634 886.600597l-87.574925-107.596418-49.518806-705.948657 90.32597 113.862687 46.767761 699.682388z"
          fill="#FFFFFF"/>
    <path d="M1326.758634 910.901493a24.300896 24.300896 0 0 1-18.951642-9.17015l-87.422089-106.985074a24.300896 24.300896 0 0 1-5.50209-13.755224L1165.211171 74.736716a24.759403 24.759403 0 0 1 15.283582-24.453731 24.300896 24.300896 0 0 1 27.81612 7.641791L1299.248186 171.787463a24.912239 24.912239 0 0 1 5.196418 13.602388l45.850746 696.167164a26.746269 26.746269 0 0 1 0 5.043582 24.453731 24.453731 0 0 1-24.453731 24.300896z m-63.732537-141.220299l34.235224 42.029851-41.112836-615.469851-36.680597-45.850746z"
          fill="#3C663E"/>
    <path d="M1328.439828 889.657313H731.310276S725.808186 733.61194 976.458932 733.61194c283.05194 0 351.980896 156.045373 351.980896 156.045373z"
          fill="#FFFFFF"/>
    <path d="M1328.7455 913.958209H731.310276a24.300896 24.300896 0 0 1-24.300896-23.383881 158.643582 158.643582 0 0 1 45.850746-108.054925c45.850746-48.143284 122.268657-72.597015 223.293135-72.597015 275.104478 0 359.469851 140.608955 372.460895 166.132537a23.078209 23.078209 0 0 1 4.126567 13.602388 24.300896 24.300896 0 0 1-23.995223 24.300896z m-569.160597-48.754627h522.545671c-37.444776-41.724179-124.561194-106.985075-305.671642-106.985075-86.046567 0-150.848955 19.562985-187.376716 56.854926a116.919403 116.919403 0 0 0-29.497313 50.130149z"
          fill="#3C663E"/>
    <path d="M737.882216 175.608358a36.527761 36.527761 0 0 1-36.527761-36.527761c0-24.912239-73.361194-66.025075-157.115224-66.025075-87.727761 0-256.764179 22.31403-258.445373 22.466866a36.527761 36.527761 0 0 1-9.628657-72.444179C283.348485 22.161194 451.773559 0 544.239231 0c111.264478 0 230.170746 55.93791 230.170746 139.080597a36.527761 36.527761 0 0 1-36.527761 36.527761z"
          fill="#3C663E"/>
    <path d="M152.979529 251.109254a37.29194 37.29194 0 0 1-23.231044-8.253135 36.527761 36.527761 0 0 1-4.890747-51.505671l127.923583-155.281194a36.527761 36.527761 0 0 1 56.396417 45.850746l-127.923582 155.892537a36.22209 36.22209 0 0 1-28.274627 13.296717zM738.035052 175.608358a36.527761 36.527761 0 0 1-36.527761-36.527761C701.507291 55.93791 820.566395 0 932.442216 0a2621.592836 2621.592836 0 0 1 262.877612 23.078209 36.527761 36.527761 0 1 1-9.781493 72.444179c-1.681194 0-166.285373-22.466866-253.860298-22.466866-83.601194 0-157.115224 41.112836-157.115224 66.025075a36.527761 36.527761 0 0 1-36.527761 36.527761z"
          fill="#3C663E"/>
    <path d="M1328.134156 257.222687a36.986269 36.986269 0 0 1-27.816119-12.685374l-137.552239-161.241791a36.527761 36.527761 0 1 1 55.479403-47.684776l137.552239 161.241791a36.680597 36.680597 0 0 1-3.973731 51.658508 37.29194 37.29194 0 0 1-23.689553 8.711642zM655.962216 669.26806a24.300896 24.300896 0 0 1-20.938507-12.07403c-17.117612-28.274627-170.41194-47.226269-297.418508-16.81194a24.300896 24.300896 0 0 1-11.309851-47.379105c113.709851-27.357612 311.479403-25.523582 350.452538 38.973134a24.453731 24.453731 0 0 1-8.253135 33.471045 23.689552 23.689552 0 0 1-12.532537 3.820896zM655.962216 548.374925a24.300896 24.300896 0 0 1-20.938507-11.768358C618.058932 508.637612 477.755649 489.074627 349.832067 519.641791a24.300896 24.300896 0 0 1-11.309851-47.379104c114.779701-27.510448 298.946866-25.98209 338.225672 38.973134a24.300896 24.300896 0 0 1-8.253135 33.471045 23.689552 23.689552 0 0 1-12.532537 3.668059zM655.962216 432.372537a24.300896 24.300896 0 0 1-20.938507-11.768358c-17.117612-28.427463-146.263881-47.226269-272.964777-16.81194a24.300896 24.300896 0 1 1-11.462686-47.379105c110.80597-26.593433 285.802985-27.816119 326.151642 38.973135a24.300896 24.300896 0 0 1-8.253135 33.471044 23.689552 23.689552 0 0 1-12.532537 3.515224zM816.286992 547.45791a24.912239 24.912239 0 0 1-13.90806-4.432238 24.300896 24.300896 0 0 1-5.960597-33.929553c49.671642-70.915821 152.835821-61.134328 220.847762-55.479403A24.912239 24.912239 0 0 1 1039.427291 480.057313a23.995224 23.995224 0 0 1-25.829254 22.161194c-58.230448-5.196418-144.124179-12.991045-177.74806 34.846568a24.300896 24.300896 0 0 1-19.562985 10.392835zM816.286992 426.564776a25.065075 25.065075 0 0 1-12.532537-3.515224 24.453731 24.453731 0 0 1-8.864478-33.471045c39.278806-64.955224 223.44597-66.483582 338.378508-38.973134a24.300896 24.300896 0 1 1-11.462687 47.379105c-127.923582-30.567164-268.226866-11.157015-285.191642 16.81194a24.606567 24.606567 0 0 1-20.327164 11.768358zM816.286992 310.562388a25.065075 25.065075 0 0 1-12.532537-3.515224A24.453731 24.453731 0 0 1 794.889977 273.576119c40.348657-66.789254 215.345672-65.566567 326.151642-39.12597a24.453731 24.453731 0 0 1-11.309851 47.531941c-126.853731-30.567164-256-11.615522-273.117612 16.81194a24.606567 24.606567 0 0 1-20.327164 11.768358z"
          fill="#3C663E"/>
    <path d="M548.212962 265.017313l-69.998806-60.828656-76.112238 60.828656 0.152835-216.262686h146.263881l-0.305672 216.262686z"
          fill="#B2EDA6"/>
    <path d="M548.212962 289.471045a24.759403 24.759403 0 0 1-15.283582-5.960597l-54.715224-47.684776-60.370149 48.296119a24.453731 24.453731 0 0 1-25.829254 2.903881 20.021493 20.021493 0 0 1-13.449552-18.951642V48.754627a24.453731 24.453731 0 0 1 24.300896-24.453731h146.26388a24.300896 24.300896 0 0 1 16.506269 7.183283 24.606567 24.606567 0 0 1 7.183283 17.270448v216.415522a24.14806 24.14806 0 0 1-14.366567 22.008358 23.231045 23.231045 0 0 1-10.24 2.292538zM426.708485 73.055522v146.263881l36.222089-34.235224a24.453731 24.453731 0 0 1 30.567164 0l30.567165 33.623881V73.055522z"
          fill="#3C663E"/>
</svg>